<svg width="800" height="400" xmlns="http://www.w3.org/2000/svg">
  <defs>
    <linearGradient id="bg4" x1="0%" y1="0%" x2="100%" y2="100%">
      <stop offset="0%" style="stop-color:#0f172a"/>
      <stop offset="100%" style="stop-color:#1e1b4b"/>
    </linearGradient>
  </defs>
  <rect width="800" height="400" fill="url(#bg4)"/>
  <!-- Mac тЏЙТаЄ -->
  <path d="M400 80 L550 180 L500 180 L500 280 L300 280 L300 180 L250 180 Z" fill="none" stroke="#94a3b8" stroke-width="2"/>
  <ellipse cx="400" cy="160" rx="60" ry="20" fill="none" stroke="#94a3b8" stroke-width="2"/>
  <rect x="320" y="200" width="160" height="100" rx="5" fill="none" stroke="#94a3b8" stroke-width="2"/>
  <!-- т║ћућетЏЙТаЄ -->
  <rect x="180" y="300" width="60" height="60" rx="12" fill="#7c3aed"/>
  <text x="210" y="340" text-anchor="middle" font-family="Arial" font-size="28">РџА</text>
  <rect x="260" y="300" width="60" height="60" rx="12" fill="#db2777"/>
  <text x="290" y="340" text-anchor="middle" font-family="Arial" font-size="28">­ЪфЪ</text>
  <rect x="340" y="300" width="60" height="60" rx="12" fill="#22d3ee"/>
  <text x="370" y="340" text-anchor="middle" font-family="Arial" font-size="28">­ЪћЇ</text>
  <rect x="420" y="300" width="60" height="60" rx="12" fill="#f472b6"/>
  <text x="450" y="340" text-anchor="middle" font-family="Arial" font-size="28">­ЪЊИ</text>
  <rect x="500" y="300" width="60" height="60" rx="12" fill="#a78bfa"/>
  <text x="530" y="340" text-anchor="middle" font-family="Arial" font-size="28">­Ъњ╗</text>
  <text x="400" y="380" text-anchor="middle" font-family="Arial" font-size="24" fill="#94a3b8">Mac Productivity</text>
</svg>
